# xmcd
#
# Track frame offsets:
#	150
#	25883
#	45918
#	62570
#	82063
#	100009
#	118182
#	133733
#	158312
#	177073
#	197524
#	215487
#	252121
#	267347
#
# Disc length: 3854 seconds
#
# Revision: 0
# Processed by: cddbd v1.4PL0 Copyright (c) Steve Scherf et al.
# Submitted via: EasyCDDAExtractor 5.0.2.1
#
DISCID=b30f0c0e
DTITLE=KCi and JoJo - X
DYEAR=2000
DGENRE=R&B
TTITLE0=Honest Lover
TTITLE1=Wanna Do You Right
TTITLE2=Get Back
TTITLE3=Crazy
TTITLE4=Game Face
TTITLE5=Thug N Me Thug N You (Feat 2Pac)
TTITLE6=If Its Going To Work
TTITLE7=All The Things I Should Have Known
TTITLE8=I Just Cant Find The Words 
TTITLE9=Something Inside Of Me 
TTITLE10=One Last Time
TTITLE11=Suicide
TTITLE12=Ooh Yeah
TTITLE13=I Just Cant Leave (Bonus Track)
EXTD=
EXTT0=
EXTT1=
EXTT2=
EXTT3=
EXTT4=
EXTT5=
EXTT6=
EXTT7=
EXTT8=
EXTT9=
EXTT10=
EXTT11=
EXTT12=
EXTT13=
PLAYORDER=
